<?xml version="1.0" encoding="UTF-8" standalone="no"?>
<!-- Uploaded to: SVG Repo, www.svgrepo.com, Transformed by: SVG Repo Mixer Tools -->

<svg
   fill="#4b5563"
   width="800px"
   height="800px"
   viewBox="-2 0 19 19"
   class="cf-icon-svg"
   version="1.1"
   id="svg1"
   sodipodi:docname="images/icons/icon.svg"
   xml:space="preserve"
   inkscape:version="1.4.3 (0d15f75, 2025-12-25)"
   xmlns:inkscape="http://www.inkscape.org/namespaces/inkscape"
   xmlns:sodipodi="http://sodipodi.sourceforge.net/DTD/sodipodi-0.dtd"
   xmlns="http://www.w3.org/2000/svg"
   xmlns:svg="http://www.w3.org/2000/svg"><defs
     id="defs1"><marker
       style="overflow:visible"
       id="DartArrow"
       refX="0"
       refY="0"
       orient="auto-start-reverse"
       inkscape:stockid="Dart arrow"
       markerWidth="1"
       markerHeight="1"
       viewBox="0 0 1 1"
       inkscape:isstock="true"
       inkscape:collect="always"
       preserveAspectRatio="xMidYMid"><path
         style="fill:context-stroke;fill-rule:evenodd;stroke:none"
         d="M 0,0 5,-5 -12.5,0 5,5 Z"
         transform="scale(-0.5)"
         id="path6" /></marker></defs><sodipodi:namedview
     id="namedview1"
     pagecolor="#ffffff"
     bordercolor="#000000"
     borderopacity="0.25"
     inkscape:showpageshadow="2"
     inkscape:pageopacity="0.0"
     inkscape:pagecheckerboard="0"
     inkscape:deskcolor="#d1d1d1"
     inkscape:zoom="1.45875"
     inkscape:cx="400.34276"
     inkscape:cy="400"
     inkscape:window-width="2560"
     inkscape:window-height="1406"
     inkscape:window-x="-11"
     inkscape:window-y="-11"
     inkscape:window-maximized="1"
     inkscape:current-layer="svg1" /><g
     id="SVGRepo_bgCarrier"
     stroke-width="0" /><g
     id="SVGRepo_tracerCarrier"
     stroke-linecap="round"
     stroke-linejoin="round" /><g
     id="SVGRepo_iconCarrier"
     transform="translate(-0.09768633,2.5072836)"
     style="stroke-width:0.999994;stroke-dasharray:none"><path
       id="path1"
       style="stroke-width:0.999994;stroke-dasharray:none"
       d="M 5.7973522,1.5612768 A 5.575,5.575 0 1 0 8.8756677,11.783657 l 3.3949973,3.394998 a 1.112,1.112 0 0 0 1.56699,0 1.112,1.112 0 0 0 0,-1.568011 L 10.443678,10.215647 A 5.575,5.575 0 0 0 10.91557,4.9286742 c -0.02852,0.00828 -0.05729,0.015748 -0.08577,0.024167 -0.04868,0.014949 -0.09835,0.02642 -0.147,0.041423 -0.06721,0.020044 -0.136527,0.031437 -0.204379,0.048892 -0.05579,0.013744 -0.111224,0.028881 -0.167085,0.042305 -0.05057,0.01475 -0.102283,0.024826 -0.153401,0.037295 -0.0567,0.012761 -0.112494,0.0292 -0.1685232,0.044578 -0.044085,0.013415 -0.088228,0.026467 -0.1327124,0.038362 A 4.488,4.488 0 0 1 7.4766442,11.275676 h -9.741e-4 a 4.443,4.443 0 0 1 -1.6799878,0.32698 4.488,4.488 0 1 1 0.5527905,-8.9417357 c 0.012543,-0.062652 0.025508,-0.1251465 0.038037,-0.1874951 0.05849,-0.2802639 0.1211458,-0.5595924 0.1860108,-0.8384399 0.00149,-0.00641 0.00309,-0.012657 0.00478,-0.01874 A 5.575,5.575 0 0 0 5.7973522,1.5612768 Z" /></g><path
     d="m 8.647469,4.0936571 c 0.049,-0.1517792 0.256571,-0.1517792 0.305568,0 L 9.240343,4.984555 a 1.2873057,1.3292178 0 0 0 0.8147,0.8407647 l 0.862361,0.2966594 c 0.146994,0.050593 0.146994,0.2649237 0,0.3155167 L 10.054598,6.7341552 A 1.2873057,1.3292178 0 0 0 9.240343,7.5753798 l -0.287306,0.890438 a 0.16080185,0.16603724 0 0 1 -0.305568,0 L 8.360164,7.5749199 A 1.2873057,1.3292178 0 0 0 7.54591,6.7341552 L 6.6831041,6.4374958 a 0.16080185,0.16603724 0 0 1 0,-0.3155167 L 7.54591,5.8253197 A 1.2873057,1.3292178 0 0 0 8.360164,4.984555 Z M 6.9267568,1.7484386 a 0.09665928,0.09980632 0 0 1 0.1835186,0 l 0.172383,0.5344468 C 7.3597184,2.5211327 7.540565,2.7078671 7.7713,2.7874362 l 0.517595,0.1779956 a 0.09665928,0.09980632 0 0 1 0,0.189494 L 7.7713,3.3329214 A 0.77238341,0.79753067 0 0 0 7.2826584,3.8374722 L 7.1102754,4.371919 a 0.09665928,0.09980632 0 0 1 -0.1835186,0 L 6.7543736,3.8374722 A 0.77238341,0.79753067 0 0 0 6.265732,3.3329214 L 5.7481371,3.1549258 a 0.09665928,0.09980632 0 0 1 0,-0.189494 L 6.265732,2.7874362 A 0.77238341,0.79753067 0 0 0 6.7543736,2.2828854 Z M 10.075533,1.2659648 a 0.064588,0.06669086 0 0 1 0.122049,0 l 0.114922,0.3559912 c 0.05123,0.1591381 0.171938,0.2837811 0.326058,0.3366738 l 0.344767,0.1186637 a 0.064588,0.06669086 0 0 1 0,0.1260228 L 10.638562,2.32198 A 0.51492227,0.53168711 0 0 0 10.312504,2.6586538 L 10.197582,3.014645 a 0.064588,0.06669086 0 0 1 -0.122049,0 L 9.960611,2.6586538 A 0.51492227,0.53168711 0 0 0 9.634553,2.32198 L 9.290231,2.2033163 a 0.064588,0.06669086 0 0 1 0,-0.1260228 L 9.634999,1.9586298 C 9.789119,1.9057368 9.909832,1.7810941 9.961057,1.621956 l 0.114476,-0.3555313 z"
     id="path1-4"
     style="fill:#4b5563;stroke-width:0.452628;marker-start:url(#DartArrow)" /></svg>
